<svg xmlns="http://www.w3.org/2000/svg" xmlns:xlink="http://www.w3.org/1999/xlink">0<symbol id="icon-arrow_right" viewBox="0 0 8.4666659 8.4666659"><path d="M2.805 8.467l4.14-4.14L2.618 0 1.522 1.097l3.23 3.23L1.708 7.37z"/></symbol><symbol id="icon-arrow_down" viewBox="0 0 8.466666 8.466666"><path d="M0 3.081l4.14 4.14 4.327-4.326L7.37 1.798l-3.23 3.23-3.043-3.044z"/></symbol><symbol id="icon-envelope-closed" viewBox="0 0 8 8"><path d="M0 1v1l4 2 4-2V1H0zm0 2v4h8V3L4 5 0 3z"/></symbol><symbol id="icon-octocat" viewBox="0 0 4.2333333 4.2333333"><path d="M2.187 0A2.172 2.172 0 0 0 1.5 4.234c.109.02.148-.048.148-.105l-.002-.37c-.605.132-.732-.29-.732-.29C.815 3.216.673 3.15.673 3.15c-.198-.134.015-.132.015-.132.218.016.332.224.332.224.194.332.509.236.632.18a.464.464 0 0 1 .138-.29C1.308 3.078.8 2.892.8 2.06a.84.84 0 0 1 .225-.583.78.78 0 0 1 .02-.575s.183-.058.598.223a2.082 2.082 0 0 1 1.088 0C3.146.843 3.328.9 3.328.9c.118.299.044.52.021.575.14.152.224.346.224.583 0 .834-.508 1.018-.992 1.072.078.067.147.2.147.402 0 .29-.003.525-.003.596 0 .058.04.126.15.104A2.173 2.173 0 0 0 2.187 0" fill-rule="evenodd"/></symbol><symbol id="icon-circle-x" viewBox="0 0 8 8"><path d="M4 0C1.79 0 0 1.79 0 4s1.79 4 4 4 4-1.79 4-4-1.79-4-4-4zM2.5 1.78L4 3.28l1.5-1.5.72.72L4.72 4l1.5 1.5-.72.72L4 4.72l-1.5 1.5-.72-.72L3.28 4l-1.5-1.5.72-.72z"/></symbol><symbol id="icon-magnifying-glass" viewBox="0 0 8 8"><path d="M3.5 0C1.57 0 0 1.57 0 3.5S1.57 7 3.5 7c.59 0 1.17-.14 1.66-.41a1 1 0 0 0 .13.13l1 1a1.02 1.02 0 1 0 1.44-1.44l-1-1a1 1 0 0 0-.16-.13c.27-.49.44-1.06.44-1.66 0-1.93-1.57-3.5-3.5-3.5zm0 1C4.89 1 6 2.11 6 3.5c0 .66-.24 1.27-.66 1.72l-.03.03a1 1 0 0 0-.13.13c-.44.4-1.04.63-1.69.63-1.39 0-2.5-1.11-2.5-2.5s1.11-2.5 2.5-2.5z"/></symbol><symbol id="icon-document" viewBox="0 0 8 8"><path d="M0 0v8h7V4H3V0H0zm4 0v3h3L4 0zM1 2h1v1H1V2zm0 2h1v1H1V4zm0 2h4v1H1V6z"/></symbol><symbol id="icon-menu" viewBox="0 0 8 8"><path d="M0 1v1h8V1zm0 2.97v1h8v-1zm0 3v1h8v-1z"/></symbol><symbol id="icon-chevron-left" viewBox="0 0 8 8"><path d="M5 0L1 4l4 4 1.5-1.5L4 4l2.5-2.5L5 0z"/></symbol></svg>