<?xml version="1.0" encoding="UTF-8" standalone="no"?>
<svg
   xmlns:dc="http://purl.org/dc/elements/1.1/"
   xmlns:cc="http://creativecommons.org/ns#"
   xmlns:rdf="http://www.w3.org/1999/02/22-rdf-syntax-ns#"
   xmlns:svg="http://www.w3.org/2000/svg"
   xmlns="http://www.w3.org/2000/svg"
   id="svg5312"
   version="1.1"
   viewBox="0 0 4.2333333 4.2333333"
   height="16"
   width="16">
  <defs
     id="defs5306" />
  <metadata
     id="metadata5309">
    <rdf:RDF>
      <cc:Work
         rdf:about="">
        <dc:format>image/svg+xml</dc:format>
        <dc:type
           rdf:resource="http://purl.org/dc/dcmitype/StillImage" />
        <dc:title></dc:title>
      </cc:Work>
    </rdf:RDF>
  </metadata>
  <g
     transform="translate(0,-292.76666)"
     id="layer1">
    <path
       d="m 2.1867139,292.76666 c -1.19951924,0 -2.17207022,0.97255 -2.17207022,2.17234 0,0.95974 0.62236318,1.77388 1.48556382,2.06125 0.1086835,0.0199 0.1482896,-0.0472 0.1482896,-0.10482 0,-0.0514 -0.00185,-0.18816 -0.00295,-0.36938 -0.6042273,0.13121 -0.73171356,-0.29125 -0.73171356,-0.29125 -0.0988152,-0.25084 -0.24123738,-0.31766 -0.24123738,-0.31766 -0.19723044,-0.13481 0.0149352,-0.13215 0.0149352,-0.13215 0.21803392,0.0154 0.33271804,0.22391 0.33271804,0.22391 0.1937637,0.33191 0.5084789,0.23603 0.6322315,0.18056 0.019736,-0.14043 0.075745,-0.23618 0.137888,-0.29044 -0.4823413,-0.0548 -0.98948668,-0.24124 -0.98948668,-1.07364 0,-0.23711 0.0846798,-0.431 0.22363448,-0.58289 -0.022405,-0.0549 -0.0969482,-0.27578 0.021203,-0.57489 0,0 0.1824282,-0.0584 0.5974256,0.2227 0.1732271,-0.0481 0.3591226,-0.0723 0.5438178,-0.0731 0.1844287,7.5e-4 0.3703241,0.025 0.5438177,0.0731 0.4147309,-0.28111 0.5967589,-0.2227 0.5967589,-0.2227 0.1185519,0.29911 0.044007,0.51995 0.021603,0.57489 0.1392215,0.15189 0.2233679,0.34578 0.2233679,0.58289 0,0.83453 -0.5079451,1.01815 -0.991887,1.0719 0.078012,0.0671 0.1474895,0.19963 0.1474895,0.40233 0,0.29031 -0.00269,0.52461 -0.00269,0.59582 0,0.0582 0.039073,0.12576 0.1493568,0.10455 0.8625346,-0.28791 1.4843643,-1.1015 1.4843643,-2.06098 0,-1.19979 -0.9726839,-2.17234 -2.1724696,-2.17234"
       style="fill-opacity:1;fill-rule:evenodd;stroke:none;stroke-width:0.13335399"
       id="path24" />
  </g>
</svg>
